<svg width="44" height="40" xmlns="http://www.w3.org/2000/svg" xml:space="preserve" enable-background="new 0 0 88 44" version="1.1">

 <g>
  <title>Layer 1</title>
  <g id="svg_1">
   <path id="svg_2" d="m20.5,22.25c0.552,0 1,0.448 1,1c0,0.343 -0.185,0.631 -0.447,0.812c0.292,0.12 0.611,0.188 0.947,0.188c1.381,0 2.5,-1.12 2.5,-2.5s-1.119,-2.5 -2.5,-2.5s-2.5,1.12 -2.5,2.5c0,0.336 0.068,0.655 0.188,0.948c0.181,-0.264 0.469,-0.448 0.812,-0.448z" fill="#0088CC"/>
   <path id="svg_3" d="m22,14.75c-8.667,0 -13,8 -13,8s1.946,2.578 6,4.5c1.885,0.894 4.024,2 7,2c3.009,0 5.105,-1.09 7,-2c4.008,-1.924 6,-4.5 6,-4.5s-4.333,-8 -13,-8zm0,3.5c1.93,0 3.5,1.57 3.5,3.5s-1.57,3.5 -3.5,3.5s-3.5,-1.57 -3.5,-3.5s1.57,-3.5 3.5,-3.5zm6.135,7.197l-0.299,0.143c-1.69,0.816 -3.439,1.66 -5.836,1.66c-2.354,0 -4.114,-0.839 -5.816,-1.651l-0.326,-0.156c-2.034,-0.964 -3.474,-2.116 -4.327,-2.917c0.606,-0.699 2.693,-2.872 6.043,-4.031c-0.673,0.912 -1.074,2.035 -1.074,3.255c0,3.037 2.463,5.5 5.5,5.5s5.5,-2.463 5.5,-5.5c0,-1.218 -0.4,-2.339 -1.07,-3.25c3.367,1.173 5.43,3.377 5.999,4.049c-0.869,0.804 -2.302,1.942 -4.294,2.898z" fill="#0088CC"/>
  </g>
 </g>
</svg>