<!DOCTYPE svg PUBLIC "-//W3C//DTD SVG 1.1//EN" "http://www.w3.org/Graphics/SVG/1.1/DTD/svg11.dtd">
<svg alt="eye" version="1.1" xmlns="http://www.w3.org/2000/svg" xmlns:xlink="http://www.w3.org/1999/xlink" x="0px" y="0px" width="88px"
	 height="44px" viewBox="1 1 1 48" xml:space="preserve">
		<path fill="#0088CC" d="M22,14.75c-8.667,0-13,8-13,8s1.946,2.578,6,4.5c1.885,0.894,4.024,2,7,2c3.009,0,5.105-1.09,7-2
			c4.008-1.924,6-4.5,6-4.5S30.667,14.75,22,14.75z M22,18.25c1.93,0,3.5,1.57,3.5,3.5s-1.57,3.5-3.5,3.5s-3.5-1.57-3.5-3.5
			S20.07,18.25,22,18.25z M28.135,25.447l-0.299,0.143c-1.69,0.816-3.439,1.66-5.836,1.66c-2.354,0-4.114-0.839-5.816-1.651
			l-0.326-0.156c-2.034-0.964-3.474-2.116-4.327-2.917c0.606-0.699,2.693-2.872,6.043-4.031C16.901,19.407,16.5,20.53,16.5,21.75
			c0,3.037,2.463,5.5,5.5,5.5s5.5-2.463,5.5-5.5c0-1.218-0.4-2.339-1.07-3.25c3.367,1.173,5.43,3.377,5.999,4.049
			C31.56,23.353,30.127,24.491,28.135,25.447z"/>
</svg>
